<?xml version="1.0" standalone="no"?>
<!DOCTYPE svg PUBLIC "-//W3C//DTD SVG 20010904//EN"
 "http://www.w3.org/TR/2001/REC-SVG-20010904/DTD/svg10.dtd">
<svg version="1.0" xmlns="http://www.w3.org/2000/svg"
 width="1200.000000pt" height="1200.000000pt" viewBox="0 0 1200.000000 1200.000000"
 preserveAspectRatio="xMidYMid meet">
<g transform="translate(0.000000,1200.000000) scale(0.100000,-0.100000)"
fill="#ff7b00" stroke="none">
<path d="M6000 10120 c-41 -5 -127 -14 -190 -20 -249 -24 -353 -41 -575 -95
-352 -85 -734 -226 -1005 -368 -195 -103 -422 -243 -550 -339 -14 -10 -59 -44
-100 -75 -227 -170 -450 -380 -655 -618 -162 -188 -357 -452 -455 -616 -76
-128 -191 -338 -218 -399 -122 -277 -164 -379 -201 -488 -78 -232 -152 -547
-186 -792 -38 -278 -43 -701 -10 -991 17 -154 83 -519 96 -535 6 -7 59 -14
132 -18 67 -4 196 -11 287 -16 91 -5 230 -12 309 -15 l143 -7 -5 34 c-3 18
-13 58 -21 88 -76 260 -123 673 -111 980 11 305 41 504 122 815 68 264 245
684 371 880 24 39 54 86 66 105 108 171 155 234 310 419 133 159 359 376 507
487 14 10 61 45 104 78 76 58 280 186 295 186 5 0 10 4 12 9 4 12 250 140 358
186 519 224 1094 327 1639 296 113 -7 249 -19 301 -27 463 -71 898 -222 1290
-447 111 -63 290 -179 312 -200 7 -7 33 -27 58 -44 157 -108 452 -397 612
-598 195 -246 352 -507 483 -800 48 -108 102 -259 120 -333 20 -81 37 -99 76
-78 302 168 428 238 489 274 30 17 90 50 133 72 43 23 80 47 83 55 5 12 -39
131 -125 334 -32 75 -146 308 -161 326 -4 6 -25 42 -45 80 -94 173 -231 373
-407 593 -244 305 -547 588 -878 819 -174 122 -332 223 -347 223 -2 0 -35 18
-71 39 -85 49 -247 131 -332 166 -36 15 -78 33 -95 40 -16 8 -61 26 -100 40
-167 63 -162 62 -400 134 -107 33 -394 99 -485 112 -353 50 -367 52 -635 55
-148 1 -304 -1 -345 -6z m600 -70 c47 -6 121 -13 165 -16 44 -4 90 -10 103
-15 13 -5 47 -9 75 -9 29 0 65 -7 81 -15 15 -8 46 -15 67 -15 21 0 41 -4 44
-10 3 -5 21 -10 38 -10 18 -1 43 -7 57 -15 14 -8 42 -14 63 -15 20 0 45 -4 55
-9 32 -16 161 -43 173 -35 8 5 10 2 7 -8 -5 -11 21 -23 116 -52 66 -21 128
-45 138 -53 9 -8 22 -13 30 -12 22 4 69 -12 142 -47 37 -19 72 -34 77 -34 17
0 116 -50 129 -65 7 -8 18 -15 25 -15 7 0 43 -16 81 -35 37 -19 74 -35 81 -35
7 0 13 -6 13 -13 0 -12 64 -47 88 -47 6 0 17 -6 24 -13 7 -7 36 -26 63 -42 28
-16 68 -44 91 -62 23 -18 46 -33 53 -33 6 0 11 -4 11 -9 0 -5 25 -23 55 -40
30 -17 61 -40 67 -51 7 -11 22 -20 34 -20 13 0 24 -8 27 -20 3 -11 13 -20 23
-20 10 0 28 -10 39 -23 11 -13 47 -43 80 -67 33 -24 76 -61 96 -82 20 -21 43
-38 52 -38 10 0 17 -4 17 -9 0 -14 103 -111 118 -111 6 0 12 -5 12 -10 0 -9
31 -44 131 -150 8 -9 18 -24 22 -33 3 -9 16 -17 27 -17 11 0 20 -5 20 -10 0
-6 11 -20 25 -32 14 -12 25 -28 25 -36 0 -7 16 -28 35 -45 19 -17 35 -36 35
-43 0 -7 12 -22 26 -33 15 -12 42 -45 59 -74 18 -28 42 -61 54 -73 12 -12 21
-26 21 -32 0 -6 3 -12 8 -14 4 -1 30 -36 57 -77 28 -40 56 -76 63 -78 6 -3 12
-11 12 -19 0 -7 14 -36 30 -64 17 -28 30 -53 30 -56 0 -3 13 -24 28 -47 59
-87 93 -152 94 -178 1 -20 7 -29 22 -31 15 -2 20 -9 19 -26 -2 -13 15 -56 37
-97 22 -41 40 -79 40 -85 0 -5 13 -38 29 -72 16 -35 33 -75 36 -90 4 -16 11
-28 17 -28 20 0 -4 -75 -32 -100 -69 -60 -209 -149 -261 -165 -11 -4 -19 -13
-19 -21 0 -8 -9 -14 -21 -14 -11 0 -54 -15 -94 -34 -86 -42 -117 -50 -149 -42
-24 6 -56 54 -56 83 0 7 -4 13 -10 13 -5 0 -10 8 -10 18 0 9 -13 51 -29 92
-41 106 -39 102 -60 135 -11 17 -20 40 -20 51 -1 12 -8 27 -16 34 -8 7 -15 20
-15 30 0 9 -10 32 -23 51 -39 58 -87 152 -87 171 0 10 -5 18 -11 18 -6 0 -8
-9 -4 -20 4 -11 2 -20 -4 -20 -6 0 -11 18 -11 40 0 29 -5 42 -20 50 -11 6 -20
16 -20 22 0 6 -16 32 -35 59 -19 27 -37 60 -41 74 -3 14 -9 25 -13 25 -9 0
-81 97 -81 109 0 5 -15 22 -32 38 -18 15 -41 47 -52 70 -12 28 -28 45 -47 52
-21 7 -26 14 -22 30 4 15 1 21 -11 21 -8 0 -25 13 -37 29 -12 17 -28 27 -35
24 -10 -3 -12 0 -8 10 3 10 -2 18 -15 22 -12 3 -21 13 -21 21 0 8 -7 14 -15
14 -8 0 -15 3 -15 8 -1 13 -106 122 -118 122 -7 0 -12 6 -12 14 0 7 -9 16 -20
19 -11 3 -20 12 -20 19 0 8 -11 20 -24 26 -14 6 -35 25 -47 41 -13 17 -31 31
-41 31 -10 0 -18 4 -18 10 0 5 -34 35 -75 66 -41 31 -75 60 -75 65 0 5 -6 9
-12 9 -7 0 -46 23 -86 50 -41 28 -77 50 -80 50 -4 0 -24 11 -44 25 -20 14 -44
25 -53 25 -9 0 -19 9 -22 20 -3 11 -13 20 -23 20 -29 0 -50 11 -50 26 0 8 -8
14 -17 14 -14 0 -142 60 -233 109 -61 33 -81 41 -105 41 -15 0 -33 6 -39 13
-12 15 -177 72 -238 83 -21 3 -42 12 -49 20 -6 8 -17 14 -24 14 -17 0 -115 29
-137 41 -10 5 -37 9 -60 9 -24 0 -63 7 -87 16 -81 28 -232 54 -375 65 -248 18
-508 26 -606 17 -253 -22 -407 -42 -530 -70 -74 -17 -144 -32 -155 -33 -11 -1
-30 -7 -42 -13 -12 -7 -34 -12 -49 -12 -36 0 -105 -20 -125 -37 -8 -7 -21 -13
-28 -13 -11 0 -146 -43 -226 -72 -22 -9 -58 -21 -79 -28 -22 -7 -63 -27 -90
-44 -28 -18 -85 -45 -126 -61 -41 -17 -84 -39 -95 -50 -11 -11 -27 -18 -37
-17 -9 2 -23 -6 -30 -18 -7 -12 -33 -30 -58 -41 -25 -11 -55 -30 -68 -42 -13
-12 -29 -22 -35 -23 -30 -3 -57 -18 -62 -34 -4 -12 -12 -16 -24 -13 -13 3 -25
-4 -36 -21 -15 -23 -48 -47 -113 -83 -25 -14 -69 -51 -148 -128 -29 -27 -58
-49 -65 -47 -8 1 -24 -14 -37 -33 -12 -19 -27 -35 -32 -35 -6 0 -10 -7 -10
-15 0 -8 -9 -15 -20 -15 -10 0 -24 -9 -30 -20 -14 -27 -139 -152 -165 -165
-10 -6 -22 -20 -25 -31 -3 -12 -34 -54 -70 -93 -36 -39 -83 -96 -105 -126 -22
-31 -57 -77 -77 -101 -21 -25 -38 -52 -38 -60 0 -7 -9 -19 -20 -26 -11 -7 -20
-21 -20 -31 0 -10 -12 -30 -26 -45 -14 -15 -34 -45 -44 -67 -9 -22 -25 -46
-34 -54 -9 -7 -16 -20 -16 -29 0 -8 -13 -36 -28 -61 -36 -58 -46 -82 -43 -102
1 -9 -7 -19 -19 -22 -14 -4 -20 -13 -20 -35 0 -17 -4 -32 -9 -34 -16 -6 -79
-153 -127 -296 -13 -41 -31 -86 -39 -102 -8 -15 -19 -45 -24 -66 -5 -22 -15
-56 -20 -76 -27 -95 -33 -117 -46 -173 -45 -193 -64 -310 -80 -480 -1 -16 -8
-75 -14 -130 -6 -55 -9 -136 -5 -180 3 -44 7 -127 9 -185 4 -135 31 -388 61
-569 19 -114 13 -158 -24 -173 -31 -12 -335 -4 -475 13 -73 9 -97 16 -133 42
-26 18 -44 39 -44 50 0 10 -6 42 -14 70 -54 200 -83 515 -78 852 4 238 39 550
83 743 10 45 19 95 19 110 0 15 7 40 15 56 8 15 15 44 15 62 0 19 5 34 10 34
6 0 10 9 10 20 0 10 4 29 10 42 5 13 23 66 39 118 42 132 56 169 69 182 7 7
12 22 12 35 0 13 5 23 10 23 6 0 10 8 10 19 0 10 7 24 15 31 8 7 12 16 9 21
-2 5 11 43 31 85 19 42 35 83 35 91 0 7 9 21 20 30 11 10 20 28 20 40 0 17 4
21 16 16 14 -5 16 0 12 35 -2 28 0 42 9 42 6 0 18 12 26 28 8 15 30 54 49 88
19 33 38 74 43 90 4 16 10 23 12 17 8 -22 25 -14 22 10 -3 27 17 77 30 77 5 0
13 9 16 20 3 11 13 20 21 20 8 0 14 8 14 18 1 9 14 33 30 52 17 19 30 38 30
43 0 5 35 56 78 114 42 57 91 123 107 146 17 23 42 47 55 54 13 7 28 21 32 32
4 12 14 21 23 21 9 0 15 9 15 24 0 26 64 96 88 96 6 0 12 6 12 14 0 8 15 27
33 43 18 16 36 37 40 46 3 9 11 17 17 17 5 0 10 5 10 10 0 13 66 72 91 82 11
4 19 17 19 28 0 13 7 20 19 20 11 0 23 9 26 21 4 11 20 25 36 31 16 5 29 16
29 24 0 8 10 18 22 23 13 5 23 17 23 27 0 12 8 20 24 22 13 2 26 12 28 23 3
10 10 19 15 19 14 0 128 91 128 102 0 5 5 6 12 2 6 -4 16 -1 22 7 6 8 50 40
99 72 48 33 87 63 87 68 0 5 9 9 19 9 16 0 66 32 146 95 10 8 27 15 37 15 10
0 18 6 18 14 0 8 15 17 35 20 19 4 35 11 35 15 0 5 36 26 80 47 44 22 80 42
80 47 0 4 10 7 21 7 12 0 32 11 45 25 13 14 34 25 46 25 13 0 68 20 123 45 55
25 108 45 117 45 15 0 84 28 150 61 10 5 29 9 43 9 16 0 25 6 25 15 0 11 11
15 38 15 37 0 74 11 200 59 29 10 82 23 117 26 36 4 68 11 71 16 3 5 21 9 40
9 19 0 56 7 82 15 26 8 151 28 277 44 127 17 244 32 260 34 66 9 555 6 635 -3z"/>
<path d="M5316 8649 c-112 -28 -292 -135 -387 -230 -67 -67 -100 -121 -133
-213 -30 -86 -34 -90 -82 -77 -154 43 -429 -61 -587 -221 -116 -119 -196 -287
-212 -449 -6 -51 -2 -85 14 -147 12 -45 21 -86 21 -91 0 -5 -35 -34 -78 -64
-147 -103 -265 -265 -330 -452 -64 -185 -82 -494 -41 -696 40 -194 107 -346
194 -436 30 -32 55 -61 55 -66 0 -4 -28 -36 -62 -71 -76 -76 -128 -169 -164
-294 -23 -81 -26 -106 -21 -190 5 -106 19 -162 44 -188 14 -14 31 -15 117 -9
56 3 111 9 124 12 25 6 26 9 42 146 6 54 22 128 35 165 27 80 102 219 121 226
8 3 49 0 92 -6 65 -10 92 -9 170 6 230 42 495 219 621 416 60 93 29 86 304 70
161 -10 493 -59 560 -82 l27 -10 0 -249 c0 -323 -9 -311 194 -263 61 15 116
30 121 35 7 5 10 498 10 1471 0 1192 -2 1470 -13 1503 -8 22 -34 82 -59 133
-72 146 -166 230 -338 297 -60 24 -87 28 -195 31 -69 2 -143 -1 -164 -7z m306
-90 c21 -11 46 -19 57 -19 11 0 26 -7 35 -15 8 -8 24 -19 36 -23 42 -16 139
-107 151 -142 15 -47 27 -59 40 -40 8 11 9 4 5 -26 -5 -36 -3 -42 12 -40 11 1
18 -8 20 -24 2 -14 9 -31 15 -39 6 -7 13 -34 15 -60 6 -82 8 -1396 2 -2096 -6
-743 -4 -725 -64 -750 -40 -17 -82 0 -97 40 -7 16 -13 92 -15 167 -3 105 -8
147 -23 180 -25 58 -65 96 -115 108 -22 6 -59 17 -81 25 -42 16 -157 35 -235
40 -25 2 -67 6 -95 9 -27 4 -113 9 -190 13 -122 5 -142 4 -154 -11 -7 -9 -24
-16 -37 -16 -13 0 -27 -6 -31 -13 -4 -7 -27 -28 -50 -47 -24 -18 -43 -39 -43
-46 0 -8 -13 -20 -30 -29 -16 -9 -30 -22 -30 -30 0 -8 -6 -18 -14 -22 -7 -4
-18 -18 -25 -30 -6 -12 -17 -20 -24 -17 -7 2 -17 -6 -22 -18 -6 -12 -19 -26
-30 -32 -11 -6 -44 -26 -74 -45 -106 -68 -240 -121 -306 -121 -17 0 -36 -5
-43 -12 -7 -7 -40 -10 -84 -9 -82 2 -141 -19 -176 -64 -11 -14 -27 -25 -36
-25 -9 0 -16 -8 -16 -20 0 -11 -9 -25 -20 -32 -11 -7 -20 -18 -20 -24 0 -6 -9
-31 -19 -55 -11 -24 -23 -66 -26 -92 -5 -29 -16 -56 -28 -68 -16 -15 -18 -22
-9 -31 18 -18 16 -23 -27 -67 -43 -45 -56 -49 -65 -25 -3 9 -13 14 -20 11 -9
-4 -23 7 -36 30 -17 30 -21 48 -17 92 7 83 24 149 47 181 11 15 20 34 20 42 0
16 32 82 51 105 7 8 18 23 24 34 50 89 54 99 50 141 -7 71 -10 81 -41 136 -68
124 -84 158 -84 180 0 12 -6 22 -15 22 -8 0 -17 14 -21 35 -3 19 -10 38 -15
41 -5 3 -9 20 -9 37 0 18 -7 57 -15 87 -23 85 -20 378 4 511 16 87 30 124 81
224 55 109 94 167 143 213 9 9 17 22 17 29 0 7 5 13 11 13 22 0 139 118 139
140 0 9 7 25 15 37 13 19 16 76 4 108 -7 21 13 202 28 254 17 59 58 147 73
156 6 3 10 17 10 30 0 17 6 25 23 27 18 2 21 8 19 31 -2 19 1 27 8 22 6 -4 21
4 34 17 41 41 77 68 91 68 8 0 16 8 19 18 6 17 100 72 124 72 7 0 20 4 30 9
51 26 94 38 160 44 12 1 26 8 31 15 7 11 11 10 24 -3 12 -11 21 -13 34 -6 10
5 30 12 44 15 31 7 102 62 118 91 6 11 24 43 40 70 17 28 35 59 40 70 6 11 29
36 52 55 23 19 49 43 58 53 8 9 20 17 25 17 9 0 28 16 64 53 9 9 24 17 33 17
9 0 22 7 29 15 7 8 25 15 40 15 14 0 30 3 34 8 4 4 35 14 69 24 80 21 225 14
279 -13z"/>
<path d="M5380 8381 c-14 -5 -37 -9 -52 -10 -15 -1 -47 -14 -71 -31 -25 -16
-50 -30 -56 -30 -6 0 -11 -7 -11 -15 0 -8 -13 -21 -30 -30 -16 -9 -30 -21 -30
-27 0 -7 -11 -23 -24 -37 -13 -15 -39 -62 -57 -105 -32 -79 -36 -114 -25 -211
7 -59 47 -145 76 -163 11 -7 20 -18 20 -25 0 -6 16 -25 35 -40 20 -16 43 -45
53 -65 9 -21 26 -38 37 -40 26 -5 65 -46 90 -96 11 -21 25 -41 32 -43 7 -3 13
-16 13 -28 0 -13 5 -27 10 -30 7 -4 10 -70 9 -179 -1 -157 1 -177 20 -222 38
-85 90 -114 209 -114 71 0 132 21 132 46 0 9 -6 14 -12 11 -7 -2 -42 -1 -78 4
-35 4 -89 3 -119 -2 -35 -5 -59 -5 -67 2 -9 7 -11 67 -7 247 5 215 4 241 -12
272 -26 51 -122 158 -264 297 l-125 121 -4 59 c-7 101 47 229 139 327 77 83
121 101 244 101 80 0 95 -3 137 -27 63 -37 121 -106 146 -174 22 -55 22 -67
22 -626 0 -386 3 -576 11 -589 10 -19 12 -18 32 18 20 37 21 49 22 538 2 483
-4 638 -25 659 -6 6 -10 18 -10 28 0 27 -22 68 -37 68 -7 0 -13 5 -13 10 0 10
-16 30 -60 77 -40 42 -116 71 -200 77 -41 3 -86 1 -100 -3z"/>
<path d="M4555 7869 c-16 -6 -53 -21 -82 -35 -28 -13 -55 -24 -60 -24 -4 0
-14 -9 -21 -20 -7 -11 -18 -20 -25 -20 -8 0 -27 -17 -43 -37 -16 -20 -36 -44
-45 -52 -9 -9 -20 -31 -24 -50 -5 -24 -10 -30 -16 -20 -14 23 -23 0 -9 -25 10
-20 10 -29 -2 -53 -8 -17 -11 -40 -7 -58 4 -16 7 -46 8 -66 1 -43 58 -115 107
-135 18 -7 40 -21 49 -31 11 -11 30 -16 50 -14 18 1 36 -2 40 -8 3 -6 18 -11
33 -11 63 0 96 -58 89 -154 -4 -64 -16 -81 -63 -96 -27 -9 -52 -8 -122 5 -48
10 -100 25 -117 34 -74 41 -251 5 -288 -59 -9 -15 -35 -45 -57 -67 -22 -23
-40 -45 -40 -51 0 -6 -6 -15 -12 -19 -19 -12 -40 -52 -33 -63 3 -5 -5 -26 -19
-47 -14 -21 -30 -60 -37 -88 -6 -27 -19 -67 -27 -89 -13 -31 -16 -76 -14 -234
1 -120 5 -199 12 -206 5 -5 10 -18 10 -28 0 -10 4 -26 9 -36 6 -9 12 -29 15
-44 3 -14 26 -48 51 -75 25 -26 50 -63 56 -81 6 -19 17 -46 25 -60 8 -15 14
-37 14 -49 0 -72 69 -148 145 -160 39 -6 170 14 205 32 14 7 50 23 80 35 30
13 60 29 66 38 6 8 16 12 23 8 8 -5 14 0 18 13 3 11 15 23 27 27 31 9 76 55
76 77 0 13 5 17 16 13 13 -5 15 -1 10 18 -4 16 -1 26 9 30 20 7 20 80 0 100
-8 8 -15 20 -15 26 0 6 -7 13 -15 16 -8 4 -15 13 -15 21 0 19 -46 63 -66 63
-16 0 -34 13 -66 48 -12 12 -27 22 -33 22 -6 0 -32 19 -58 43 -45 41 -47 44
-47 97 0 72 17 104 56 108 22 2 39 -5 65 -27 19 -17 37 -31 42 -31 4 0 7 -7 7
-15 0 -9 8 -18 18 -22 9 -3 31 -21 47 -38 29 -31 148 -115 162 -115 4 0 25 -8
47 -18 23 -10 58 -26 80 -36 57 -25 156 -34 386 -37 113 -1 246 -8 295 -16 50
-7 119 -11 154 -8 55 4 68 9 94 36 46 49 54 99 48 305 -6 177 -7 182 -34 217
-28 37 -83 71 -99 61 -5 -3 -17 1 -27 10 -13 12 -25 13 -52 6 -18 -5 -74 -12
-124 -16 -266 -18 -298 -14 -341 41 -26 34 -26 35 -9 79 11 29 31 55 61 77 49
37 90 91 103 137 11 37 -5 189 -24 217 -7 11 -16 44 -20 73 -4 28 -12 52 -18
52 -18 1 -57 36 -57 52 -1 7 -19 27 -40 43 -21 17 -39 36 -40 43 0 7 -8 16
-17 19 -10 4 -40 27 -66 52 -26 25 -54 49 -62 54 -8 4 -15 14 -15 22 0 8 -6
18 -13 22 -8 4 -32 40 -55 78 -68 117 -88 141 -134 164 -48 23 -129 27 -183
10z m199 -61 c3 -13 7 -39 10 -58 14 -88 117 -215 290 -360 49 -41 99 -91 112
-110 31 -46 74 -216 77 -299 l2 -65 -55 -11 c-119 -25 -164 -78 -163 -193 0
-54 5 -70 29 -105 49 -69 73 -78 184 -67 52 5 172 17 265 26 94 8 184 18 200
20 17 3 35 1 42 -4 9 -6 13 -76 14 -266 0 -141 -1 -260 -4 -262 -2 -3 -49 6
-103 20 -154 38 -236 46 -501 46 l-245 0 -90 45 c-187 95 -250 146 -335 270
-49 73 -77 90 -130 80 -89 -16 -109 -54 -119 -226 l-7 -124 32 -31 c17 -17 44
-37 59 -45 15 -8 59 -32 97 -54 39 -22 91 -51 117 -64 48 -24 88 -56 88 -69
-2 -25 -59 -94 -116 -139 -83 -65 -168 -105 -294 -139 -180 -49 -212 -44 -188
25 5 14 10 60 11 104 l2 78 -51 47 c-121 112 -145 168 -151 352 -7 183 18 317
81 445 73 147 197 295 249 295 12 0 51 -14 87 -31 169 -81 343 -99 410 -42
l28 23 -5 173 c-4 140 -8 174 -21 185 -11 8 -54 12 -129 12 -95 0 -121 4 -158
21 -54 25 -81 57 -96 113 -23 86 9 176 95 261 89 90 211 143 328 144 42 1 48
-2 52 -21z"/>
<path d="M6930 8653 c-127 -19 -271 -86 -366 -168 -55 -47 -144 -169 -144
-198 0 -7 -3 -17 -7 -21 -4 -4 -16 -28 -28 -54 -20 -46 -20 -65 -23 -1426 -2
-1305 -1 -1380 15 -1398 22 -25 70 -20 215 23 103 30 132 49 123 78 -10 37 -8
222 3 233 6 6 38 15 69 19 32 4 96 15 143 23 49 9 195 20 345 26 143 5 285 12
315 15 230 25 487 143 644 298 100 99 122 151 114 271 -5 81 -24 118 -68 136
-50 21 -85 -1 -205 -125 -98 -101 -121 -119 -191 -151 -71 -33 -154 -66 -239
-96 -16 -6 -178 -14 -360 -18 -243 -6 -348 -13 -400 -25 -38 -9 -83 -18 -100
-22 -16 -3 -42 -12 -56 -19 -15 -8 -30 -9 -35 -4 -6 6 -10 472 -4 540 0 3 129
5 287 5 159 0 300 3 315 7 71 21 135 129 125 214 -4 41 -12 54 -61 101 -31 30
-56 62 -57 71 -3 53 4 258 10 274 4 10 68 80 142 156 194 196 230 250 263 395
8 33 36 35 129 11 77 -20 137 -50 208 -105 101 -79 132 -127 131 -206 0 -45
-6 -61 -35 -101 -43 -58 -121 -106 -207 -128 -36 -9 -68 -19 -72 -22 -4 -4 -8
-83 -9 -176 -2 -165 -2 -170 20 -188 55 -43 233 -4 340 76 43 32 89 33 127 4
211 -158 343 -439 333 -707 -5 -125 -4 -126 119 -69 35 15 91 40 125 53 33 14
64 31 69 38 11 17 10 141 -3 217 -50 313 -216 557 -468 689 -28 14 -36 38 -24
73 47 131 11 367 -79 521 -79 138 -151 204 -300 279 -119 61 -220 83 -337 74
-46 -3 -88 -9 -93 -12 -20 -12 31 -44 70 -44 21 0 42 -3 45 -7 4 -3 35 -8 69
-10 35 -1 77 -8 93 -14 163 -61 322 -181 368 -276 5 -13 14 -23 19 -23 4 0 8
-8 8 -19 0 -10 7 -24 15 -31 8 -7 15 -20 15 -29 0 -9 10 -41 21 -71 18 -45 23
-86 28 -226 l7 -171 34 -46 c19 -26 43 -47 53 -47 9 0 17 -7 17 -15 0 -9 8
-18 18 -22 9 -4 52 -43 94 -87 99 -105 108 -115 108 -122 0 -3 9 -17 20 -31
12 -16 18 -34 15 -45 -5 -14 -2 -16 11 -11 15 5 16 2 11 -30 -5 -35 6 -51 16
-24 3 6 6 0 6 -14 1 -14 8 -34 16 -45 8 -10 15 -33 15 -50 0 -17 6 -36 13 -43
10 -7 14 -41 14 -115 1 -94 -1 -105 -18 -109 -10 -3 -19 -12 -19 -20 0 -20
-67 -28 -75 -9 -2 7 -13 12 -22 10 -15 -2 -18 4 -17 35 1 20 -3 37 -7 37 -5 0
-9 19 -9 43 -1 23 -7 53 -15 67 -8 14 -14 33 -15 44 0 28 -80 210 -96 219 -8
4 -14 15 -14 23 0 16 -8 25 -101 126 -88 95 -210 142 -266 103 -14 -10 -32
-13 -47 -9 -13 3 -27 1 -30 -5 -4 -6 -15 -11 -24 -11 -10 0 -34 -9 -55 -20
-38 -21 -87 -19 -87 4 0 6 -4 5 -9 -3 -5 -8 -16 -11 -24 -8 -22 8 -24 159 -2
177 8 7 15 20 15 30 0 11 10 20 25 24 14 4 25 11 25 16 0 6 6 10 13 10 8 0 22
9 32 20 10 11 22 20 27 20 15 0 88 64 88 78 0 6 5 12 10 12 6 0 10 4 10 9 0 5
7 26 16 47 25 60 26 131 4 179 -30 61 -61 109 -76 118 -8 4 -14 14 -14 22 0 8
-16 22 -35 31 -19 9 -35 20 -35 25 0 5 -6 9 -14 9 -7 0 -19 7 -26 15 -7 8 -20
15 -30 15 -10 0 -42 11 -72 25 -68 32 -121 32 -184 0 -55 -28 -60 -33 -147
-165 -34 -52 -94 -128 -134 -168 -93 -94 -169 -190 -189 -239 -9 -21 -23 -46
-31 -55 -10 -11 -13 -24 -8 -35 5 -10 9 -56 10 -103 1 -47 7 -95 14 -109 7
-12 11 -32 8 -42 -3 -11 1 -26 9 -33 8 -8 14 -22 14 -30 0 -9 4 -16 10 -16 5
0 14 -17 21 -39 19 -63 -1 -104 -65 -136 -44 -21 -63 -25 -117 -22 -75 4 -375
-17 -404 -28 -37 -15 -72 -59 -89 -112 -13 -39 -17 -86 -17 -193 1 -219 18
-288 76 -312 43 -18 209 -14 360 8 17 2 158 8 314 12 200 5 286 11 288 19 3 7
10 10 18 7 7 -3 36 7 64 21 29 15 60 25 71 22 11 -3 20 -2 20 3 0 4 23 16 50
26 28 10 50 24 50 31 0 7 17 17 38 22 24 7 63 35 111 81 76 71 100 84 142 78
20 -2 25 -10 27 -42 5 -60 -39 -146 -75 -146 -7 0 -13 -6 -13 -12 0 -13 -68
-78 -81 -78 -4 0 -14 -6 -21 -13 -7 -7 -35 -24 -63 -37 -27 -13 -61 -32 -75
-40 -14 -9 -56 -29 -95 -44 -38 -16 -79 -32 -90 -36 -53 -21 -318 -44 -530
-44 -176 -1 -433 -49 -467 -87 -9 -11 -21 -19 -26 -19 -14 0 -62 -77 -62 -100
0 -11 -7 -23 -15 -26 -9 -4 -14 -17 -13 -33 2 -31 -10 -70 -26 -86 -19 -19
-89 -33 -113 -22 -49 22 -47 -22 -51 1299 -2 913 0 1253 9 1295 6 32 13 72 16
88 3 17 12 35 19 41 8 7 14 16 12 20 -4 17 14 54 26 54 8 0 16 12 19 28 6 26
120 152 138 152 5 0 17 7 27 16 48 41 223 93 322 96 51 1 93 -6 165 -29 103
-33 130 -45 176 -84 26 -21 54 -39 63 -39 9 0 16 -4 16 -10 0 -5 18 -27 40
-49 22 -22 40 -44 40 -50 0 -6 7 -11 15 -11 9 0 15 -9 15 -25 0 -16 6 -25 15
-25 8 0 15 -9 15 -20 0 -10 6 -23 14 -27 8 -4 15 -17 18 -28 2 -11 10 -20 18
-20 8 0 20 -6 26 -14 6 -8 16 -11 23 -7 39 24 -78 241 -166 309 -15 12 -30 24
-33 27 -3 4 -30 25 -62 49 -124 93 -339 148 -488 124z"/>
<path d="M6874 8364 c-18 -8 -41 -24 -53 -35 -11 -10 -25 -18 -31 -17 -5 2
-16 -8 -23 -22 -8 -15 -20 -24 -30 -22 -11 2 -17 -4 -17 -17 0 -11 -4 -22 -9
-26 -21 -12 -61 -99 -71 -153 -16 -89 -24 -917 -10 -1037 7 -55 16 -107 20
-116 16 -29 86 -69 132 -75 50 -7 178 13 178 27 0 5 -11 16 -25 25 -22 14 -42
16 -136 10 l-110 -7 3 578 c4 666 0 641 95 744 70 75 122 99 216 99 144 0 199
-32 288 -167 55 -84 74 -151 67 -237 -9 -108 -15 -115 -303 -389 l-80 -76 0
-281 c0 -235 2 -280 14 -278 13 3 49 95 50 127 2 121 22 357 32 387 8 22 24
47 37 57 12 10 22 24 22 30 0 7 18 22 40 35 22 12 40 27 40 33 0 13 66 79 80
79 5 0 10 6 10 13 0 8 12 24 26 38 57 53 100 186 91 287 -7 85 -24 134 -78
224 -47 79 -71 108 -91 108 -7 0 -24 10 -38 23 -14 12 -49 28 -78 35 -77 17
-220 15 -258 -4z"/>
<path d="M10887 7882 c-19 -4 -32 -42 -23 -70 4 -10 27 -33 51 -51 93 -67 251
-195 288 -233 20 -21 37 -47 37 -57 0 -10 -47 -60 -112 -117 -61 -54 -132
-117 -157 -140 -154 -136 -429 -330 -699 -494 -68 -41 -145 -88 -170 -104 -26
-16 -90 -51 -142 -79 -52 -28 -113 -62 -135 -75 -47 -30 -351 -187 -555 -288
-317 -156 -425 -206 -509 -239 -48 -18 -115 -47 -147 -63 -32 -16 -135 -60
-229 -96 -561 -221 -807 -316 -820 -316 -6 0 -22 -6 -36 -14 -15 -8 -94 -35
-175 -61 -82 -27 -153 -51 -159 -55 -12 -9 -510 -176 -665 -224 -149 -46 -320
-92 -705 -191 -253 -66 -317 -82 -460 -115 -71 -17 -148 -35 -170 -40 -22 -5
-92 -20 -155 -34 -63 -13 -178 -38 -255 -55 -160 -34 -187 -39 -460 -86 -233
-40 -548 -80 -731 -94 -71 -6 -246 -20 -389 -31 -373 -31 -789 -31 -1063 -1
-240 26 -319 40 -506 91 -158 42 -215 64 -331 122 -167 84 -249 159 -313 287
-37 74 -37 76 -37 195 0 119 1 122 38 201 74 157 181 295 404 527 68 70 123
133 123 141 0 17 -20 37 -37 37 -26 0 -484 -340 -648 -480 -218 -187 -444
-458 -521 -625 -63 -137 -75 -268 -37 -404 80 -288 380 -491 918 -621 415
-100 826 -128 1390 -95 403 23 647 46 870 80 50 8 153 23 230 34 120 17 543
98 755 144 228 51 314 71 385 92 44 13 114 31 155 40 41 9 145 37 230 61 85
24 243 69 350 99 285 80 636 184 780 231 384 125 664 225 935 334 72 29 162
65 200 80 88 35 120 49 242 106 54 25 119 54 144 64 92 37 656 308 815 392 44
24 94 49 110 55 69 29 493 262 581 319 28 19 55 34 59 34 4 0 21 10 38 23 17
13 58 39 91 57 33 19 122 76 198 127 76 51 142 93 145 93 10 1 163 109 482
339 243 175 327 240 453 351 132 116 397 383 397 399 0 6 10 15 21 22 30 16
41 1 79 -111 18 -52 39 -107 46 -121 7 -14 27 -66 44 -114 32 -95 52 -125 82
-125 35 0 54 18 77 72 65 148 145 326 156 348 19 37 135 300 135 306 0 3 14
34 30 69 33 70 38 116 15 135 -10 9 -141 12 -513 13 -274 1 -506 1 -515 -1z
m891 -88 c18 -12 22 -23 22 -67 0 -28 -7 -65 -15 -81 -8 -15 -15 -34 -15 -41
0 -7 -7 -15 -15 -19 -9 -3 -15 -18 -15 -35 0 -16 -6 -31 -13 -34 -7 -3 -19
-24 -27 -48 -8 -24 -25 -66 -39 -94 -13 -27 -31 -70 -41 -95 -24 -65 -53 -111
-67 -105 -8 2 -13 -3 -13 -14 0 -22 -25 -45 -39 -37 -5 4 -16 19 -24 34 -8 15
-22 43 -32 62 -38 73 -45 88 -45 103 0 13 -11 28 -65 90 -8 9 -15 26 -15 37 0
11 -5 20 -11 20 -6 0 -9 9 -6 20 3 11 1 20 -3 20 -16 0 -100 95 -100 113 0 10
-8 20 -17 24 -18 6 -122 112 -123 124 0 4 7 12 16 20 34 28 657 31 702 3z
m-2138 -1549 c0 -13 -58 -55 -76 -55 -13 0 -24 -8 -27 -20 -3 -14 -14 -20 -31
-20 -15 0 -29 -7 -32 -15 -4 -8 -12 -15 -19 -15 -6 0 -24 -11 -39 -25 -15 -14
-33 -25 -40 -25 -8 0 -38 -19 -69 -42 -30 -24 -89 -59 -131 -78 -42 -19 -76
-40 -76 -47 0 -6 -14 -16 -30 -22 -17 -5 -33 -17 -36 -26 -4 -8 -18 -15 -34
-15 -16 0 -35 -7 -43 -15 -8 -8 -41 -26 -73 -41 -95 -43 -197 -94 -229 -115
-16 -10 -37 -21 -45 -25 -8 -3 -49 -23 -90 -43 -41 -21 -81 -36 -88 -34 -7 3
-10 -1 -6 -11 4 -12 0 -16 -15 -16 -11 0 -55 -18 -97 -40 -42 -22 -94 -45
-115 -52 -21 -6 -46 -19 -55 -30 -10 -10 -30 -18 -45 -18 -15 0 -34 -6 -42
-14 -7 -8 -30 -19 -50 -24 -20 -6 -47 -19 -60 -29 -14 -10 -57 -32 -98 -47
-85 -33 -157 -66 -179 -82 -8 -6 -51 -25 -95 -42 -93 -36 -160 -64 -232 -98
-28 -13 -61 -24 -73 -24 -11 0 -33 -8 -47 -17 -14 -10 -47 -25 -72 -34 -25
-10 -71 -27 -101 -39 -30 -11 -75 -28 -100 -37 -25 -8 -54 -20 -65 -26 -11 -7
-27 -12 -35 -13 -31 -3 -216 -68 -232 -82 -10 -8 -26 -12 -36 -10 -10 3 -27
-1 -37 -8 -10 -8 -30 -14 -43 -14 -14 0 -43 -9 -66 -19 -39 -18 -213 -74 -376
-121 -41 -11 -83 -25 -92 -30 -10 -6 -28 -10 -40 -10 -30 0 -99 -20 -225 -64
-56 -20 -115 -36 -131 -36 -15 0 -37 -7 -48 -15 -10 -8 -32 -15 -47 -15 -15 0
-44 -7 -64 -15 -19 -8 -48 -15 -64 -15 -15 0 -32 -7 -37 -16 -5 -9 -28 -17
-60 -20 -28 -3 -66 -11 -84 -18 -18 -8 -62 -22 -98 -31 -36 -9 -69 -20 -75
-24 -5 -4 -44 -13 -85 -20 -41 -7 -82 -16 -90 -21 -9 -4 -36 -11 -60 -14 -44
-7 -64 -13 -125 -38 -29 -11 -56 -17 -255 -52 -122 -21 -230 -49 -230 -58 0
-4 -25 -8 -55 -8 -30 0 -63 -4 -73 -9 -9 -5 -51 -15 -92 -21 -41 -7 -104 -18
-140 -25 -36 -7 -105 -19 -155 -25 -49 -7 -117 -16 -150 -21 -108 -15 -239
-30 -300 -35 -64 -4 -74 -5 -285 -28 -226 -25 -763 -41 -910 -27 -69 7 -182
14 -252 16 -70 2 -137 9 -148 15 -13 7 -43 8 -82 4 -50 -6 -60 -4 -56 7 4 11
-7 15 -50 16 -31 2 -86 12 -122 22 -72 22 -174 49 -232 61 -21 4 -44 13 -53
20 -8 7 -24 10 -34 7 -12 -3 -22 1 -25 9 -3 8 -15 14 -26 14 -21 0 -24 1 -100
41 -25 13 -63 32 -85 43 -44 21 -139 82 -165 106 -81 74 -100 94 -100 109 0
24 -11 33 -26 20 -9 -7 -14 -2 -19 23 -4 18 -13 37 -20 43 -28 23 -49 110 -49
205 -1 105 30 226 67 260 10 10 16 23 12 29 -3 6 1 11 10 11 13 0 16 6 11 24
-4 15 -1 28 7 33 11 7 23 22 84 101 10 12 33 39 51 58 17 20 32 43 32 50 0 8
6 14 14 14 8 0 18 9 21 21 4 11 18 24 31 29 13 5 24 18 24 27 0 10 30 45 67
78 36 33 79 72 94 86 15 15 34 29 41 33 22 10 53 31 59 39 3 4 13 5 22 1 22
-8 23 -54 1 -54 -10 0 -15 -8 -13 -22 2 -24 -3 -42 -27 -93 -19 -42 -52 -173
-60 -244 -10 -95 39 -270 94 -329 6 -7 12 -18 12 -24 0 -13 101 -118 114 -119
6 0 31 -16 56 -35 37 -29 108 -66 275 -145 59 -27 367 -98 504 -115 24 -3 55
-10 69 -15 13 -5 39 -7 57 -3 18 3 82 -1 142 -10 179 -26 726 -24 938 4 44 6
112 10 150 9 39 -1 77 1 85 4 19 8 86 15 220 22 170 9 573 67 606 88 6 3 46 8
89 12 43 3 95 10 114 15 20 5 72 16 116 24 44 9 122 24 174 36 52 11 105 20
117 20 13 0 45 7 71 15 26 8 68 22 93 29 25 8 65 18 89 22 24 3 58 12 75 19
19 8 51 11 83 8 45 -5 53 -3 48 9 -5 12 7 16 62 21 37 3 82 13 100 22 34 17
102 32 191 42 29 3 55 9 58 14 3 5 15 9 27 9 13 0 50 9 82 21 33 12 80 25 105
29 25 4 68 15 95 23 149 45 273 77 297 77 15 0 29 4 33 9 3 5 30 13 60 16 36
5 55 12 55 21 0 7 12 16 28 19 74 16 164 39 227 59 181 59 221 71 233 68 8 -2
23 6 33 17 11 12 32 23 47 27 55 12 137 37 146 46 6 4 19 8 31 8 11 0 38 9 60
20 22 11 52 20 67 20 15 0 30 5 33 10 3 6 17 10 31 10 14 0 24 6 24 14 0 16
23 25 135 56 103 28 136 40 157 58 10 8 28 12 43 10 16 -4 36 3 57 18 18 14
46 24 64 24 18 0 35 4 39 9 7 13 64 41 82 41 8 0 26 9 41 19 15 11 51 24 80
31 28 7 52 16 52 21 0 5 8 9 18 9 26 0 108 29 197 70 44 20 96 43 115 50 19 7
39 17 45 22 5 4 19 8 32 8 13 0 23 5 23 10 0 6 11 10 25 10 14 0 25 6 25 13 0
16 56 41 76 33 8 -3 32 3 52 14 20 12 60 33 89 49 31 16 62 27 75 24 16 -3 38
7 68 31 25 20 52 36 60 36 8 0 36 11 62 25 26 14 53 25 61 25 19 0 72 27 87
45 7 8 23 15 36 15 12 0 26 5 29 10 3 6 18 10 33 10 16 0 32 8 40 20 7 11 22
20 35 20 13 0 27 4 33 9 5 5 20 11 34 13 14 2 25 10 25 18 0 10 8 14 28 12 18
-2 29 2 33 12 5 14 44 24 44 11z"/>
<path d="M10520 6394 c-47 -36 -173 -125 -280 -196 -198 -133 -216 -144 -330
-208 l-65 -36 1 -109 c3 -222 -16 -600 -36 -728 -84 -541 -313 -1107 -629
-1550 -381 -535 -935 -977 -1536 -1228 -131 -54 -398 -144 -472 -159 -32 -6
-116 -24 -188 -40 -241 -54 -350 -64 -695 -64 -276 0 -334 3 -470 22 -232 34
-522 101 -690 159 -285 99 -661 289 -905 457 -240 165 -615 521 -778 739 -56
74 -95 117 -107 117 -10 0 -53 -7 -96 -15 -194 -35 -477 -63 -674 -67 -115 -1
-143 -9 -133 -36 6 -16 76 -130 113 -182 9 -14 52 -77 95 -140 241 -353 601
-730 955 -1001 278 -213 506 -350 860 -517 305 -144 755 -276 1111 -326 318
-45 395 -51 704 -51 321 1 468 11 714 51 690 112 1384 415 1976 862 437 331
834 778 1132 1277 72 121 230 442 285 580 229 574 330 1153 314 1800 -4 176
-14 336 -29 460 -27 230 -23 227 -147 129z m40 -109 c0 -8 6 -12 14 -9 8 3 16
-4 20 -19 24 -98 41 -665 23 -817 -4 -41 -12 -129 -17 -195 -11 -153 -25 -262
-39 -298 -6 -16 -11 -44 -11 -64 0 -50 -38 -238 -61 -301 -10 -29 -19 -66 -19
-83 0 -17 -9 -42 -20 -56 -11 -14 -20 -38 -20 -52 0 -15 -7 -37 -16 -49 -8
-12 -14 -30 -12 -40 1 -9 -5 -32 -15 -51 -9 -18 -19 -49 -23 -68 -4 -19 -19
-58 -35 -86 -16 -29 -29 -67 -29 -85 0 -20 -6 -35 -15 -38 -8 -4 -15 -17 -15
-31 0 -14 -9 -36 -20 -50 -11 -14 -20 -31 -20 -38 0 -6 -9 -20 -20 -30 -11
-10 -20 -30 -20 -44 0 -13 -10 -41 -23 -60 -39 -61 -47 -75 -58 -101 -37 -83
-62 -130 -70 -130 -5 0 -12 -12 -15 -26 -4 -14 -24 -46 -45 -71 -22 -24 -39
-53 -39 -63 0 -11 -6 -23 -14 -27 -7 -4 -21 -21 -29 -38 -21 -39 -53 -75 -65
-75 -6 0 -8 -9 -5 -20 3 -12 -3 -29 -15 -42 -12 -13 -37 -43 -56 -68 -94 -120
-125 -158 -173 -208 -29 -30 -53 -61 -53 -68 0 -7 -10 -19 -22 -25 -27 -14
-57 -49 -58 -66 0 -7 -7 -13 -15 -13 -8 0 -15 -6 -15 -12 0 -17 -115 -125
-128 -120 -5 1 -9 -5 -8 -14 0 -10 -10 -23 -23 -30 -13 -7 -28 -20 -33 -28 -5
-9 -16 -16 -23 -16 -8 0 -15 -7 -15 -15 0 -9 -8 -18 -17 -22 -10 -3 -29 -18
-43 -32 -14 -15 -43 -40 -65 -56 -22 -17 -69 -54 -105 -82 -114 -92 -124 -100
-175 -134 -61 -41 -72 -49 -93 -71 -9 -10 -24 -18 -34 -18 -9 0 -19 -4 -22 -9
-6 -10 -97 -64 -189 -113 -28 -15 -53 -31 -56 -35 -3 -5 -24 -17 -46 -28 -22
-11 -76 -39 -120 -63 -44 -24 -88 -41 -97 -39 -10 3 -15 0 -12 -8 6 -14 -30
-30 -45 -20 -6 3 -15 -4 -21 -15 -6 -11 -17 -20 -25 -20 -9 0 -23 -4 -33 -9
-9 -6 -48 -22 -87 -37 -38 -14 -83 -33 -100 -42 -16 -8 -38 -19 -47 -23 -10
-5 -28 -9 -42 -9 -13 0 -29 -7 -36 -15 -7 -8 -28 -15 -47 -15 -18 0 -44 -7
-56 -14 -12 -8 -65 -26 -117 -40 -52 -14 -129 -34 -170 -46 -412 -114 -971
-145 -1574 -86 -117 12 -152 19 -159 31 -7 13 -23 16 -73 14 -35 -1 -67 1 -71
4 -3 4 -25 7 -48 7 -26 0 -48 6 -55 15 -7 8 -27 15 -46 15 -46 0 -308 73 -389
109 -26 12 -56 21 -66 21 -11 0 -19 5 -19 11 0 6 -6 9 -12 7 -7 -3 -33 5 -58
18 -25 12 -64 27 -86 33 -23 6 -47 18 -54 26 -7 8 -25 15 -40 15 -15 0 -33 7
-40 15 -7 8 -21 15 -31 15 -11 0 -19 5 -19 10 0 6 -13 10 -30 10 -19 0 -30 5
-30 14 0 8 -20 20 -46 27 -25 8 -50 22 -55 31 -5 10 -20 18 -34 18 -33 0 -55
10 -55 25 0 7 -11 16 -25 19 -14 4 -25 11 -25 16 0 6 -9 10 -20 10 -21 0 -51
14 -79 38 -41 34 -111 82 -119 82 -6 0 -12 7 -16 15 -3 8 -12 15 -21 15 -9 0
-53 27 -98 61 -45 33 -93 68 -106 77 -12 9 -57 44 -98 77 -42 33 -95 73 -120
89 -37 24 -42 30 -31 44 11 13 10 14 -15 8 -19 -4 -27 -3 -27 7 0 7 -19 29
-42 48 -52 42 -148 141 -148 151 0 5 -6 8 -12 8 -15 0 -178 183 -178 198 0 6
-4 12 -8 14 -5 1 -41 40 -80 85 -54 61 -70 86 -65 100 6 16 5 16 -10 4 -14
-11 -18 -11 -24 5 -3 11 -30 50 -60 88 -29 37 -53 74 -53 82 0 7 -8 21 -18 31
-35 35 -74 107 -80 145 -4 34 -3 38 13 32 11 -5 22 -1 30 10 7 9 31 18 56 21
24 2 85 9 134 15 113 13 335 30 397 31 66 0 105 -24 157 -99 13 -18 42 -52 64
-76 23 -24 65 -69 92 -100 65 -75 66 -76 109 -111 20 -16 36 -35 36 -42 0 -6
15 -22 32 -34 18 -12 49 -37 68 -56 81 -78 243 -213 256 -213 5 0 22 -14 38
-30 16 -17 34 -30 40 -31 6 0 31 -16 56 -35 25 -19 61 -42 80 -52 20 -9 49
-29 65 -44 16 -16 37 -28 46 -28 8 0 24 -8 35 -17 23 -21 104 -63 120 -63 6 0
17 -7 24 -15 7 -8 21 -15 31 -15 11 0 19 -4 19 -9 0 -5 25 -19 56 -31 31 -11
68 -29 81 -40 13 -10 38 -22 56 -26 17 -3 55 -19 84 -35 29 -16 55 -24 58 -19
3 5 21 -2 41 -15 19 -13 49 -27 67 -30 18 -4 56 -18 85 -31 29 -13 62 -24 73
-24 21 0 109 -20 204 -46 126 -34 230 -54 345 -65 69 -6 133 -16 142 -20 26
-14 645 -23 653 -10 3 6 30 11 58 11 58 0 255 24 332 41 28 6 68 15 90 19 22
5 60 14 85 20 61 16 87 21 143 27 32 3 47 9 47 20 0 9 8 13 23 12 12 -2 36 4
52 13 17 8 59 23 95 32 36 9 77 25 92 36 15 11 34 20 43 20 9 0 42 12 73 26
66 30 122 55 174 78 20 9 40 21 43 26 3 6 14 10 24 10 9 0 26 8 37 19 26 24
59 41 79 41 13 0 66 31 85 50 3 3 21 14 41 25 67 37 139 87 139 96 0 5 6 9 13
9 7 0 26 10 44 22 82 61 151 115 176 140 16 15 35 28 43 28 8 0 14 4 14 10 0
5 16 20 35 32 19 13 35 29 35 36 0 6 7 12 15 12 15 0 234 214 262 256 8 13 22
24 29 24 8 0 14 6 14 14 0 7 17 32 38 53 48 52 62 70 62 81 0 6 9 12 20 15 11
3 20 14 20 25 0 11 8 22 20 25 11 3 24 16 29 30 5 14 15 28 20 32 6 3 11 15
11 26 0 10 7 19 15 19 8 0 22 15 31 33 9 17 26 46 39 62 12 17 36 55 52 86 16
30 35 53 41 51 7 -2 12 6 12 20 0 13 7 33 15 46 9 12 29 45 44 74 59 111 66
123 74 126 4 2 7 12 7 21 0 10 8 29 19 42 10 13 21 42 25 63 4 22 14 49 22 60
8 12 19 38 25 58 5 21 18 46 28 55 10 10 22 40 26 67 6 45 12 63 36 121 5 11
10 34 11 50 2 17 8 29 15 28 7 -2 15 13 19 35 3 20 15 73 26 117 11 44 26 111
33 148 7 38 18 74 24 80 6 6 11 37 11 68 0 32 4 60 9 63 4 3 9 28 10 56 0 28
4 56 7 62 4 6 8 45 9 87 4 111 23 586 24 588 12 24 175 153 193 153 9 0 24 11
59 43 10 9 24 17 29 17 15 0 90 51 90 62 0 4 10 13 23 19 12 5 40 21 62 34 22
13 55 31 73 39 18 9 45 25 59 36 30 24 43 25 43 5z"/>
<path d="M8816 5383 c-41 -11 -280 -104 -293 -114 -22 -19 -15 -42 31 -106 25
-33 58 -85 75 -115 28 -49 31 -63 31 -140 0 -75 -4 -92 -31 -146 -60 -120
-247 -260 -328 -246 -50 9 -128 60 -162 107 -27 38 -29 46 -29 139 0 97 -1
100 -29 129 -44 44 -108 35 -196 -27 -17 -12 -59 -34 -95 -49 -95 -42 -103
-51 -97 -108 4 -33 22 -75 58 -135 60 -99 80 -125 154 -202 60 -62 137 -97
231 -103 28 -2 57 -7 64 -12 16 -10 5 -248 -15 -316 -38 -135 -124 -232 -246
-279 -94 -36 -180 -49 -195 -29 -6 8 -21 46 -33 84 -12 39 -44 115 -71 170
-42 86 -62 113 -135 184 -66 65 -87 93 -95 125 -45 179 -155 353 -238 376 -35
9 -91 -4 -154 -36 -53 -27 -56 -42 -54 -249 2 -104 6 -197 10 -206 4 -9 28
-31 54 -50 26 -18 63 -48 82 -66 19 -18 38 -33 42 -33 4 0 51 -49 106 -109
123 -137 162 -209 162 -297 0 -68 -24 -143 -62 -195 -33 -44 -116 -97 -189
-119 -157 -48 -302 -7 -393 111 -67 87 -68 90 -65 622 2 348 -1 481 -9 489 -9
9 -32 5 -94 -15 -46 -14 -115 -34 -155 -42 -39 -9 -75 -22 -80 -28 -5 -7 -6
-230 -3 -497 5 -473 6 -487 28 -550 52 -146 143 -265 255 -333 203 -122 399
-145 616 -70 198 69 377 222 429 369 27 77 23 74 120 68 121 -8 199 7 302 59
98 50 167 100 228 166 48 52 126 177 143 231 6 19 15 40 19 45 4 6 15 41 25
80 13 52 16 100 13 199 l-3 130 25 12 c14 7 47 20 73 30 133 46 294 276 347
495 33 139 23 315 -25 434 -54 134 -65 153 -98 164 -16 6 -30 10 -31 10 -1 -1
-10 -4 -20 -6z m-1 -127 c22 -8 42 -20 46 -28 3 -7 16 -32 28 -56 16 -30 25
-75 33 -155 10 -103 9 -118 -11 -190 -11 -42 -21 -88 -21 -102 0 -13 -6 -28
-13 -32 -7 -4 -19 -28 -27 -53 -8 -24 -22 -51 -32 -59 -9 -8 -15 -18 -12 -23
3 -4 -8 -22 -25 -39 -17 -17 -31 -35 -31 -40 0 -5 -10 -9 -21 -9 -17 0 -19 -3
-10 -14 10 -11 8 -16 -8 -21 -12 -3 -21 -13 -21 -21 0 -20 -30 -30 -41 -13 -7
11 -9 11 -9 -2 0 -9 -25 -36 -55 -59 -30 -23 -55 -49 -55 -56 0 -8 -4 -14 -10
-14 -17 0 -37 -54 -39 -105 -3 -102 -20 -211 -40 -258 -12 -27 -21 -56 -21
-65 0 -9 -7 -26 -15 -36 -8 -11 -15 -28 -15 -38 0 -10 -7 -18 -15 -18 -8 0
-15 -9 -15 -19 0 -11 -7 -26 -15 -35 -8 -8 -15 -18 -15 -21 0 -11 -97 -105
-108 -105 -5 0 -24 -13 -42 -30 -18 -16 -39 -30 -47 -30 -9 0 -13 -6 -9 -15 4
-11 -2 -15 -24 -15 -17 0 -30 -4 -30 -10 0 -13 -103 -39 -254 -65 -66 -11 -97
-21 -125 -42 -51 -39 -91 -85 -91 -104 0 -9 -12 -30 -27 -47 -16 -17 -33 -36
-39 -44 -7 -7 -51 -44 -99 -81 -60 -48 -92 -67 -106 -64 -12 3 -19 0 -19 -9 0
-9 -11 -14 -34 -14 -21 0 -36 -6 -40 -15 -3 -8 -14 -15 -24 -15 -10 0 -23 -5
-29 -11 -8 -8 -57 -12 -135 -13 -105 -1 -134 3 -198 23 -41 13 -83 33 -93 43
-10 10 -24 18 -32 18 -8 0 -15 5 -15 10 0 6 -4 10 -9 10 -24 0 -104 65 -119
96 -8 19 -22 34 -29 34 -7 0 -13 8 -13 17 0 9 -6 24 -14 32 -8 9 -22 36 -31
61 -39 103 -43 154 -45 498 -3 472 -5 436 28 473 23 25 35 31 76 32 80 3 78
12 72 -408 -4 -302 -2 -363 10 -379 9 -12 14 -44 14 -83 0 -35 4 -63 10 -63 5
0 18 -17 29 -38 11 -21 31 -50 45 -63 14 -13 26 -29 26 -36 0 -22 118 -78 196
-92 139 -26 208 -12 370 73 35 18 77 68 88 104 8 23 26 30 26 10 0 -7 5 -5 11
5 8 13 7 22 -1 32 -8 10 -7 16 6 23 16 9 38 95 34 137 -1 11 -2 50 -2 88 0 37
-4 67 -9 67 -5 0 -9 -5 -9 -11 0 -5 -5 -7 -10 -4 -6 3 -7 17 -4 31 5 20 2 26
-15 31 -11 3 -21 13 -21 23 0 28 -11 50 -24 50 -6 0 -20 15 -31 33 -21 36
-217 235 -258 262 -16 10 -27 26 -27 40 0 13 -5 25 -10 27 -6 2 -13 53 -16
116 -5 111 -5 114 21 148 31 40 68 45 107 14 14 -10 28 -16 32 -13 4 4 9 -3
13 -15 3 -12 9 -22 13 -22 4 0 10 -8 14 -17 3 -10 10 -25 15 -33 5 -8 26 -55
46 -105 37 -87 59 -122 139 -215 21 -25 45 -58 53 -75 9 -16 21 -33 28 -37 7
-5 10 -19 7 -35 -4 -24 -3 -26 9 -16 16 13 24 -1 50 -82 7 -22 20 -55 31 -73
21 -37 82 -102 97 -102 5 0 25 -9 45 -20 19 -12 37 -17 40 -12 3 5 17 7 31 5
14 -3 40 2 59 11 19 9 41 16 49 16 28 0 127 51 147 77 12 16 25 23 35 19 13
-4 15 -1 10 14 -4 13 -1 22 9 26 30 12 123 215 114 251 -1 4 3 25 9 45 9 28 8
61 -1 128 -10 77 -17 95 -42 121 -33 35 -97 79 -116 79 -7 0 -35 12 -63 25
-27 14 -54 25 -60 25 -5 1 -19 12 -30 26 -11 14 -37 44 -57 67 -21 23 -38 49
-38 58 0 9 -9 24 -20 34 -11 10 -20 25 -20 33 0 9 -5 30 -12 48 -10 30 -9 34
18 59 78 72 155 90 168 39 4 -13 11 -24 16 -24 6 0 10 -13 10 -29 0 -16 7 -34
15 -41 9 -8 13 -21 9 -35 -4 -17 -1 -25 13 -29 23 -7 50 -49 35 -54 -18 -6 -2
-32 20 -32 10 0 45 -15 76 -32 86 -49 189 -44 282 13 8 5 25 14 38 21 12 6 22
20 22 31 0 15 5 18 25 15 16 -4 25 -1 25 8 0 7 6 17 14 21 19 10 66 80 66 97
0 8 7 19 15 26 8 7 15 20 15 29 0 9 6 25 14 36 29 42 6 292 -31 336 -21 25
-26 81 -9 102 12 15 74 45 96 46 3 1 23 -6 45 -13z"/>
<path d="M5162 5363 c-44 -21 -134 -121 -163 -180 -20 -39 -24 -64 -24 -136 0
-98 8 -111 60 -101 89 17 270 66 296 80 63 32 102 182 65 252 -16 31 -61 74
-93 91 -31 16 -103 13 -141 -6z m104 -115 c46 -54 62 -122 27 -116 -12 2 -17
-3 -15 -14 2 -14 -4 -18 -26 -18 -16 0 -35 -7 -42 -15 -10 -12 -28 -15 -63
-13 l-51 3 -2 47 c-2 33 1 48 12 52 7 3 14 12 14 20 0 17 55 62 85 69 36 9 41
7 61 -15z"/>
<path d="M6005 4265 c-27 -8 -93 -24 -145 -35 -52 -12 -99 -25 -103 -29 -4 -4
-9 -187 -10 -407 -2 -444 -1 -434 -72 -513 -20 -22 -62 -52 -92 -67 -50 -23
-65 -25 -147 -22 -133 5 -187 33 -309 157 -105 106 -120 139 -98 211 10 33
184 293 284 425 69 90 50 98 -132 57 -75 -18 -168 -37 -207 -43 -67 -11 -73
-14 -92 -48 -11 -20 -32 -72 -47 -116 -31 -89 -59 -151 -83 -177 -19 -23 -75
-23 -161 -2 -102 25 -148 53 -204 124 -21 25 -4 25 -207 -8 l-105 -17 -3 -32
c-6 -57 104 -202 213 -283 136 -100 249 -136 397 -128 l90 6 28 -62 c53 -113
158 -221 285 -291 28 -15 55 -30 60 -34 23 -17 126 -51 197 -66 141 -28 262
-14 392 44 121 55 198 128 270 256 83 150 80 125 86 624 5 432 2 480 -25 487
-5 1 -32 -4 -60 -11z m-35 -135 c37 -73 39 -93 38 -385 0 -212 -4 -307 -14
-355 -8 -36 -17 -80 -21 -97 -3 -18 -12 -33 -19 -33 -8 0 -14 -6 -14 -13 0
-52 -129 -204 -198 -232 -18 -8 -40 -21 -48 -30 -9 -8 -29 -15 -45 -15 -16 0
-32 -6 -34 -12 -9 -22 -181 -23 -257 -2 -34 9 -75 18 -90 19 -16 1 -32 3 -38
4 -5 0 -10 8 -10 16 0 12 -7 14 -27 9 -22 -6 -25 -4 -19 11 5 15 2 17 -25 11
-25 -5 -30 -3 -26 9 4 9 1 12 -9 8 -8 -3 -14 1 -14 11 0 9 -5 16 -10 16 -6 0
-26 16 -46 35 -19 19 -38 35 -43 35 -19 0 -111 106 -111 128 0 14 -6 22 -16
22 -9 0 -34 18 -56 39 -42 43 -67 51 -224 70 -74 9 -158 41 -189 72 -5 5 -20
9 -33 9 -20 0 -22 2 -12 15 10 12 7 15 -14 21 -14 3 -26 10 -26 15 0 5 -7 9
-15 9 -8 0 -15 6 -15 13 0 8 -16 29 -35 49 -32 32 -34 37 -22 61 8 17 20 27
34 27 48 0 128 -24 171 -51 25 -16 51 -29 56 -29 6 0 23 -6 37 -14 39 -20 128
-29 146 -15 11 10 19 10 34 1 15 -10 20 -8 29 8 6 11 17 20 25 20 8 0 15 5 15
10 0 6 6 10 14 10 26 0 106 119 106 157 0 21 30 63 45 63 8 0 17 9 20 21 7 21
60 49 92 49 10 0 28 -8 41 -18 22 -17 22 -18 6 -60 -10 -23 -23 -42 -30 -42
-7 0 -22 -19 -33 -42 -11 -24 -26 -54 -34 -68 -37 -66 -45 -89 -47 -135 -3
-57 7 -105 22 -105 6 0 8 -12 5 -27 -13 -67 193 -253 324 -294 53 -17 202 -13
259 6 70 23 140 64 140 81 0 8 4 14 9 14 17 0 61 66 81 121 22 58 30 176 34
484 2 105 8 213 15 241 10 43 16 52 44 61 42 14 68 12 77 -7z"/>
</g>
</svg>
